<svg width="232" height="48" viewBox="0 0 1273 267" fill="none" xmlns="http://www.w3.org/2000/svg"><mask id="path-1-inside-1_171_77" fill="white"><path d="M236.341 60.5566C235.507 60.5536 234.684 60.3604 233.935 59.9916C233.186 59.6228 232.53 59.0879 232.017 58.4274C225.016 49.5081 216.833 41.5911 207.697 34.8962C186.695 19.4662 161.338 11.1647 135.314 11.199C128.476 11.1915 121.649 11.7557 114.904 12.8857C113.443 13.1277 111.947 12.7772 110.743 11.9112C109.54 11.0452 108.728 9.7347 108.487 8.26798C108.246 6.80127 108.595 5.29849 109.458 4.09024C110.32 2.88199 111.626 2.06723 113.087 1.82522C120.434 0.608053 127.868 -0.00231941 135.314 0.000239954C163.678 -0.0537229 191.317 8.99533 214.197 25.8265C224.135 33.1281 233.04 41.7511 240.666 51.4593C241.113 52.031 241.443 52.6856 241.638 53.3857C241.833 54.0858 241.889 54.8176 241.802 55.5392C241.715 56.2609 241.487 56.9583 241.131 57.5914C240.776 58.2246 240.299 58.7812 239.729 59.2293C238.782 60.044 237.588 60.5119 236.341 60.5566Z" /><path d="M12.3933 178.915C11.2293 178.912 10.0954 178.554 9.15055 177.89C8.20573 177.227 7.49742 176.291 7.12494 175.214C0.289992 155.48 -1.66431 134.447 1.42173 113.834C4.50776 93.2213 12.5466 73.6137 24.8812 56.6135C32.483 46.1442 41.5893 36.7975 51.9199 28.8611C52.4897 28.377 53.1544 28.0109 53.8735 27.7852C54.5927 27.5595 55.3514 27.4788 56.1035 27.548C56.8556 27.6172 57.5855 27.8349 58.2487 28.1879C58.912 28.5408 59.4949 29.0217 59.9619 29.6012C60.429 30.1808 60.7705 30.847 60.9657 31.5593C61.161 32.2716 61.2059 33.0152 61.0977 33.745C60.9895 34.4748 60.7304 35.1755 60.3363 35.8045C59.9422 36.4336 59.4212 36.9779 58.805 37.4045C49.312 44.6912 40.9468 53.2779 33.9685 62.8987C22.6659 78.5063 15.3002 96.4991 12.4713 115.412C9.64242 134.324 11.4304 153.622 17.6895 171.732C18.1579 173.099 18.051 174.592 17.3925 175.883C16.734 177.174 15.5776 178.156 14.1773 178.616C13.6068 178.822 13.0018 178.924 12.3933 178.915Z" /><path d="M136.11 267C115.865 267.018 95.8686 262.688 77.5577 254.321C69.7528 250.722 62.3079 246.432 55.3181 241.505C48.964 237.022 43.0174 232.02 37.5434 226.554C36.5819 225.498 36.0772 224.123 36.1342 222.716C36.1912 221.308 36.8055 219.977 37.8494 218.997C38.8933 218.017 40.2867 217.464 41.74 217.454C43.1933 217.443 44.5949 217.976 45.6536 218.941C50.6865 223.936 56.1405 228.516 61.9589 232.633C83.4789 247.874 109.455 256.067 136.11 256.019C137.609 256.019 139.046 256.596 140.106 257.623C141.166 258.65 141.761 260.043 141.761 261.496C141.761 262.948 141.166 264.341 140.106 265.368C139.046 266.396 137.609 266.973 136.11 266.973V267Z" /><path d="M194.422 253.232C193.211 253.231 192.036 252.815 191.086 252.052C190.135 251.288 189.465 250.222 189.181 249.023C188.898 247.825 189.019 246.564 189.524 245.444C190.029 244.324 190.889 243.409 191.967 242.847C198.407 239.513 204.546 235.606 210.312 231.172C226.494 218.703 239.342 202.295 247.676 183.453C251.55 174.667 254.394 165.446 256.147 155.981C256.265 155.26 256.522 154.569 256.906 153.951C257.289 153.332 257.789 152.797 258.378 152.378C258.967 151.959 259.632 151.664 260.334 151.51C261.037 151.356 261.762 151.346 262.468 151.482C263.174 151.617 263.846 151.895 264.446 152.298C265.045 152.701 265.559 153.223 265.958 153.831C266.356 154.44 266.632 155.123 266.768 155.842C266.904 156.56 266.897 157.299 266.749 158.014C260.668 190.665 242.879 219.846 216.84 239.88C210.559 244.722 203.87 248.988 196.85 252.627C196.095 253.012 195.265 253.219 194.422 253.232Z" /><path d="M69.2802 220.208C68.0082 220.205 66.7758 219.769 65.7899 218.971C53.0461 208.8 42.7417 195.943 35.624 181.33C32.7987 175.526 30.5087 169.48 28.7819 163.266C24.6143 148.381 23.6703 132.789 26.0119 117.515C26.5924 113.671 27.3877 109.861 28.3941 106.105C30.253 99.131 32.8144 92.3607 36.0395 85.8962C39.1552 79.6306 42.8654 73.6739 47.1197 68.1071C55.2887 57.4515 65.3413 48.3587 76.7871 41.2722C94.1857 30.5165 114.267 24.8025 134.764 24.7754C136.234 24.7754 137.643 25.3547 138.682 26.386C139.721 27.4172 140.305 28.8159 140.305 30.2743C140.305 31.7327 139.721 33.1314 138.682 34.1627C137.643 35.1939 136.234 35.7733 134.764 35.7733C125.057 35.8054 115.407 37.2505 106.122 40.0624C91.7155 44.4329 78.5007 52.002 67.4797 62.1957C53.7699 74.7974 43.9516 91.0077 39.1697 108.937C34.683 125.798 34.7786 143.539 39.4467 160.352C43.4448 174.602 50.653 187.764 60.5268 198.845C64.2383 203.033 68.2968 206.904 72.6597 210.42C73.5491 211.128 74.1967 212.091 74.5144 213.178C74.832 214.264 74.8041 215.422 74.4345 216.492C74.065 217.563 73.3717 218.494 72.4492 219.159C71.5268 219.824 70.4201 220.19 69.2802 220.208Z" /><path d="M134.713 242.093C133.279 242.093 131.903 241.514 130.889 240.483C129.874 239.453 129.304 238.055 129.304 236.598C129.304 235.14 129.874 233.742 130.889 232.712C131.903 231.681 133.279 231.102 134.713 231.102C144.189 231.103 153.613 229.677 162.678 226.871C168.939 224.965 174.985 222.396 180.717 219.205C185.851 216.361 190.721 213.05 195.267 209.313C207.525 199.301 217.19 186.397 223.421 171.725C225.828 166.058 227.693 160.17 228.992 154.14C231.922 140.914 232.108 127.213 229.538 113.911C226.967 100.608 221.697 87.995 214.064 76.8759C206.207 65.4815 196.069 55.9026 184.314 48.7673C179.283 45.6938 173.987 43.0911 168.493 40.9914C167.802 40.7576 167.165 40.3846 166.619 39.8947C166.074 39.4047 165.631 38.8079 165.318 38.1401C165.005 37.4722 164.828 36.747 164.798 36.008C164.767 35.269 164.884 34.5313 165.141 33.8392C165.398 33.147 165.789 32.5147 166.293 31.9801C166.796 31.4454 167.4 31.0195 168.069 30.7278C168.738 30.4361 169.458 30.2846 170.186 30.2824C170.914 30.2803 171.635 30.4274 172.306 30.7152C185.255 35.6692 197.132 43.1349 207.275 52.6965C213.07 58.1231 218.274 64.1659 222.799 70.7211C227.392 77.3964 231.23 84.5765 234.239 92.1255C236.805 98.5126 238.752 105.138 240.054 111.909C243.232 128.196 242.703 145.007 238.508 161.055C234.312 177.103 226.562 191.965 215.849 204.505C211.654 209.399 207.048 213.913 202.083 217.996C183.008 233.688 159.204 242.244 134.659 242.23L134.713 242.093Z" /><path d="M55.0279 139.358C53.5686 139.358 52.1691 138.78 51.1372 137.753C50.1054 136.726 49.5257 135.332 49.5257 133.879C49.5128 120.742 52.594 107.785 58.5218 96.0486C65.7195 81.8239 76.7994 69.9084 90.4899 61.6697C91.1081 61.2677 91.8013 60.9937 92.5281 60.8641C93.255 60.7345 94.0006 60.7519 94.7205 60.9152C95.4405 61.0785 96.12 61.3845 96.7187 61.8148C97.3174 62.2452 97.823 62.7911 98.2054 63.4201C98.5877 64.0491 98.839 64.7483 98.9442 65.476C99.0495 66.2038 99.0066 66.9452 98.818 67.656C98.6295 68.3669 98.2991 69.0327 97.8467 69.6138C97.3943 70.1948 96.8291 70.6793 96.1847 71.0383C85.2782 77.5428 76.2507 86.7508 69.9827 97.7641C63.7147 108.777 60.4201 121.22 60.4201 133.879C60.4204 135.313 59.8558 136.69 58.8476 137.715C57.8394 138.739 56.468 139.329 55.0279 139.358Z" /><path d="M134.225 218.25C121.538 218.216 109.019 215.349 97.5921 209.859C86.165 204.369 76.1204 196.396 68.1984 186.528C67.7198 185.97 67.3586 185.322 67.1364 184.622C66.9142 183.923 66.8355 183.185 66.9049 182.455C66.9742 181.724 67.1903 181.015 67.5403 180.369C67.8902 179.723 68.3669 179.154 68.9421 178.695C69.5173 178.236 70.1791 177.897 70.8885 177.698C71.5978 177.498 72.3401 177.443 73.0714 177.535C73.8026 177.627 74.5078 177.864 75.1452 178.232C75.7826 178.601 76.3392 179.093 76.7819 179.68C84.6216 189.402 94.7919 197.004 106.356 201.786C111.174 203.767 116.192 205.227 121.323 206.142C133.584 208.297 146.193 207.355 157.995 203.403C159.385 202.956 160.896 203.077 162.196 203.74C163.497 204.402 164.479 205.552 164.928 206.936C165.377 208.32 165.255 209.825 164.589 211.12C163.924 212.414 162.769 213.393 161.379 213.84C152.629 216.773 143.457 218.262 134.225 218.25Z" /><path d="M196.103 188.586C194.852 188.585 193.639 188.16 192.664 187.381C191.526 186.473 190.797 185.151 190.637 183.708C190.477 182.265 190.9 180.817 191.811 179.684C196.96 173.274 200.996 166.052 203.751 158.317C205.364 153.805 206.516 149.143 207.19 144.401C207.426 142.982 208.214 141.713 209.382 140.867C210.551 140.021 212.006 139.667 213.435 139.881C214.874 140.091 216.172 140.86 217.043 142.021C217.914 143.181 218.289 144.637 218.084 146.072C216.674 155.739 213.593 165.091 208.978 173.712C206.514 178.271 203.641 182.598 200.394 186.642C199.868 187.262 199.211 187.759 198.468 188.095C197.726 188.431 196.918 188.599 196.103 188.586Z" /><path d="M209.777 115.555C208.609 115.558 207.47 115.19 206.525 114.506C205.58 113.821 204.879 112.855 204.523 111.747C202.846 106.451 200.556 101.367 197.7 96.5983C195.034 92.1086 191.898 87.9123 188.346 84.0794C185.152 80.6558 181.642 77.5376 177.864 74.7657C174.073 71.972 170.019 69.55 165.759 67.5338C150.692 60.4324 133.653 58.6267 117.422 62.4112C116.033 62.6627 114.6 62.373 113.42 61.602C112.239 60.831 111.401 59.6376 111.08 58.2689C110.758 56.9001 110.977 55.4606 111.692 54.2482C112.406 53.0358 113.562 52.1432 114.919 51.7551C126.745 49.0179 139.022 48.8218 150.931 51.1798C157.685 52.551 164.244 54.7405 170.464 57.6995C175.365 59.9918 180.035 62.7435 184.412 65.9176C188.746 69.0969 192.762 72.6837 196.407 76.6284C204.887 85.7241 211.222 96.5895 214.949 108.432C215.39 109.816 215.261 111.318 214.59 112.607C213.919 113.896 212.762 114.868 211.373 115.308C210.855 115.465 210.318 115.548 209.777 115.555Z" /></mask><path d="M236.341 60.5566C235.507 60.5536 234.684 60.3604 233.935 59.9916C233.186 59.6228 232.53 59.0879 232.017 58.4274C225.016 49.5081 216.833 41.5911 207.697 34.8962C186.695 19.4662 161.338 11.1647 135.314 11.199C128.476 11.1915 121.649 11.7557 114.904 12.8857C113.443 13.1277 111.947 12.7772 110.743 11.9112C109.54 11.0452 108.728 9.7347 108.487 8.26798C108.246 6.80127 108.595 5.29849 109.458 4.09024C110.32 2.88199 111.626 2.06723 113.087 1.82522C120.434 0.608053 127.868 -0.00231941 135.314 0.000239954C163.678 -0.0537229 191.317 8.99533 214.197 25.8265C224.135 33.1281 233.04 41.7511 240.666 51.4593C241.113 52.031 241.443 52.6856 241.638 53.3857C241.833 54.0858 241.889 54.8176 241.802 55.5392C241.715 56.2609 241.487 56.9583 241.131 57.5914C240.776 58.2246 240.299 58.7812 239.729 59.2293C238.782 60.044 237.588 60.5119 236.341 60.5566Z" stroke="#0E2D7B" stroke-width="8" mask="url(#path-1-inside-1_171_77)" /><path d="M12.3933 178.915C11.2293 178.912 10.0954 178.554 9.15055 177.89C8.20573 177.227 7.49742 176.291 7.12494 175.214C0.289992 155.48 -1.66431 134.447 1.42173 113.834C4.50776 93.2213 12.5466 73.6137 24.8812 56.6135C32.483 46.1442 41.5893 36.7975 51.9199 28.8611C52.4897 28.377 53.1544 28.0109 53.8735 27.7852C54.5927 27.5595 55.3514 27.4788 56.1035 27.548C56.8556 27.6172 57.5855 27.8349 58.2487 28.1879C58.912 28.5408 59.4949 29.0217 59.9619 29.6012C60.429 30.1808 60.7705 30.847 60.9657 31.5593C61.161 32.2716 61.2059 33.0152 61.0977 33.745C60.9895 34.4748 60.7304 35.1755 60.3363 35.8045C59.9422 36.4336 59.4212 36.9779 58.805 37.4045C49.312 44.6912 40.9468 53.2779 33.9685 62.8987C22.6659 78.5063 15.3002 96.4991 12.4713 115.412C9.64242 134.324 11.4304 153.622 17.6895 171.732C18.1579 173.099 18.051 174.592 17.3925 175.883C16.734 177.174 15.5776 178.156 14.1773 178.616C13.6068 178.822 13.0018 178.924 12.3933 178.915Z" stroke="#0E2D7B" stroke-width="8" mask="url(#path-1-inside-1_171_77)" /><path d="M136.11 267C115.865 267.018 95.8686 262.688 77.5577 254.321C69.7528 250.722 62.3079 246.432 55.3181 241.505C48.964 237.022 43.0174 232.02 37.5434 226.554C36.5819 225.498 36.0772 224.123 36.1342 222.716C36.1912 221.308 36.8055 219.977 37.8494 218.997C38.8933 218.017 40.2867 217.464 41.74 217.454C43.1933 217.443 44.5949 217.976 45.6536 218.941C50.6865 223.936 56.1405 228.516 61.9589 232.633C83.4789 247.874 109.455 256.067 136.11 256.019C137.609 256.019 139.046 256.596 140.106 257.623C141.166 258.65 141.761 260.043 141.761 261.496C141.761 262.948 141.166 264.341 140.106 265.368C139.046 266.396 137.609 266.973 136.11 266.973V267Z" stroke="#0E2D7B" stroke-width="8" mask="url(#path-1-inside-1_171_77)" /><path d="M194.422 253.232C193.211 253.231 192.036 252.815 191.086 252.052C190.135 251.288 189.465 250.222 189.181 249.023C188.898 247.825 189.019 246.564 189.524 245.444C190.029 244.324 190.889 243.409 191.967 242.847C198.407 239.513 204.546 235.606 210.312 231.172C226.494 218.703 239.342 202.295 247.676 183.453C251.55 174.667 254.394 165.446 256.147 155.981C256.265 155.26 256.522 154.569 256.906 153.951C257.289 153.332 257.789 152.797 258.378 152.378C258.967 151.959 259.632 151.664 260.334 151.51C261.037 151.356 261.762 151.346 262.468 151.482C263.174 151.617 263.846 151.895 264.446 152.298C265.045 152.701 265.559 153.223 265.958 153.831C266.356 154.44 266.632 155.123 266.768 155.842C266.904 156.56 266.897 157.299 266.749 158.014C260.668 190.665 242.879 219.846 216.84 239.88C210.559 244.722 203.87 248.988 196.85 252.627C196.095 253.012 195.265 253.219 194.422 253.232Z" stroke="#0E2D7B" stroke-width="8" mask="url(#path-1-inside-1_171_77)" /><path d="M69.2802 220.208C68.0082 220.205 66.7758 219.769 65.7899 218.971C53.0461 208.8 42.7417 195.943 35.624 181.33C32.7987 175.526 30.5087 169.48 28.7819 163.266C24.6143 148.381 23.6703 132.789 26.0119 117.515C26.5924 113.671 27.3877 109.861 28.3941 106.105C30.253 99.131 32.8144 92.3607 36.0395 85.8962C39.1552 79.6306 42.8654 73.6739 47.1197 68.1071C55.2887 57.4515 65.3413 48.3587 76.7871 41.2722C94.1857 30.5165 114.267 24.8025 134.764 24.7754C136.234 24.7754 137.643 25.3547 138.682 26.386C139.721 27.4172 140.305 28.8159 140.305 30.2743C140.305 31.7327 139.721 33.1314 138.682 34.1627C137.643 35.1939 136.234 35.7733 134.764 35.7733C125.057 35.8054 115.407 37.2505 106.122 40.0624C91.7155 44.4329 78.5007 52.002 67.4797 62.1957C53.7699 74.7974 43.9516 91.0077 39.1697 108.937C34.683 125.798 34.7786 143.539 39.4467 160.352C43.4448 174.602 50.653 187.764 60.5268 198.845C64.2383 203.033 68.2968 206.904 72.6597 210.42C73.5491 211.128 74.1967 212.091 74.5144 213.178C74.832 214.264 74.8041 215.422 74.4345 216.492C74.065 217.563 73.3717 218.494 72.4492 219.159C71.5268 219.824 70.4201 220.19 69.2802 220.208Z" stroke="#0E2D7B" stroke-width="8" mask="url(#path-1-inside-1_171_77)" /><path d="M134.713 242.093C133.279 242.093 131.903 241.514 130.889 240.483C129.874 239.453 129.304 238.055 129.304 236.598C129.304 235.14 129.874 233.742 130.889 232.712C131.903 231.681 133.279 231.102 134.713 231.102C144.189 231.103 153.613 229.677 162.678 226.871C168.939 224.965 174.985 222.396 180.717 219.205C185.851 216.361 190.721 213.05 195.267 209.313C207.525 199.301 217.19 186.397 223.421 171.725C225.828 166.058 227.693 160.17 228.992 154.14C231.922 140.914 232.108 127.213 229.538 113.911C226.967 100.608 221.697 87.995 214.064 76.8759C206.207 65.4815 196.069 55.9026 184.314 48.7673C179.283 45.6938 173.987 43.0911 168.493 40.9914C167.802 40.7576 167.165 40.3846 166.619 39.8947C166.074 39.4047 165.631 38.8079 165.318 38.1401C165.005 37.4722 164.828 36.747 164.798 36.008C164.767 35.269 164.884 34.5313 165.141 33.8392C165.398 33.147 165.789 32.5147 166.293 31.9801C166.796 31.4454 167.4 31.0195 168.069 30.7278C168.738 30.4361 169.458 30.2846 170.186 30.2824C170.914 30.2803 171.635 30.4274 172.306 30.7152C185.255 35.6692 197.132 43.1349 207.275 52.6965C213.07 58.1231 218.274 64.1659 222.799 70.7211C227.392 77.3964 231.23 84.5765 234.239 92.1255C236.805 98.5126 238.752 105.138 240.054 111.909C243.232 128.196 242.703 145.007 238.508 161.055C234.312 177.103 226.562 191.965 215.849 204.505C211.654 209.399 207.048 213.913 202.083 217.996C183.008 233.688 159.204 242.244 134.659 242.23L134.713 242.093Z" stroke="#0E2D7B" stroke-width="8" mask="url(#path-1-inside-1_171_77)" /><path d="M55.0279 139.358C53.5686 139.358 52.1691 138.78 51.1372 137.753C50.1054 136.726 49.5257 135.332 49.5257 133.879C49.5128 120.742 52.594 107.785 58.5218 96.0486C65.7195 81.8239 76.7994 69.9084 90.4899 61.6697C91.1081 61.2677 91.8013 60.9937 92.5281 60.8641C93.255 60.7345 94.0006 60.7519 94.7205 60.9152C95.4405 61.0785 96.12 61.3845 96.7187 61.8148C97.3174 62.2452 97.823 62.7911 98.2054 63.4201C98.5877 64.0491 98.839 64.7483 98.9442 65.476C99.0495 66.2038 99.0066 66.9452 98.818 67.656C98.6295 68.3669 98.2991 69.0327 97.8467 69.6138C97.3943 70.1948 96.8291 70.6793 96.1847 71.0383C85.2782 77.5428 76.2507 86.7508 69.9827 97.7641C63.7147 108.777 60.4201 121.22 60.4201 133.879C60.4204 135.313 59.8558 136.69 58.8476 137.715C57.8394 138.739 56.468 139.329 55.0279 139.358Z" stroke="#0E2D7B" stroke-width="8" mask="url(#path-1-inside-1_171_77)" /><path d="M134.225 218.25C121.538 218.216 109.019 215.349 97.5921 209.859C86.165 204.369 76.1204 196.396 68.1984 186.528C67.7198 185.97 67.3586 185.322 67.1364 184.622C66.9142 183.923 66.8355 183.185 66.9049 182.455C66.9742 181.724 67.1903 181.015 67.5403 180.369C67.8902 179.723 68.3669 179.154 68.9421 178.695C69.5173 178.236 70.1791 177.897 70.8885 177.698C71.5978 177.498 72.3401 177.443 73.0714 177.535C73.8026 177.627 74.5078 177.864 75.1452 178.232C75.7826 178.601 76.3392 179.093 76.7819 179.68C84.6216 189.402 94.7919 197.004 106.356 201.786C111.174 203.767 116.192 205.227 121.323 206.142C133.584 208.297 146.193 207.355 157.995 203.403C159.385 202.956 160.896 203.077 162.196 203.74C163.497 204.402 164.479 205.552 164.928 206.936C165.377 208.32 165.255 209.825 164.589 211.12C163.924 212.414 162.769 213.393 161.379 213.84C152.629 216.773 143.457 218.262 134.225 218.25Z" stroke="#0E2D7B" stroke-width="8" mask="url(#path-1-inside-1_171_77)" /><path d="M196.103 188.586C194.852 188.585 193.639 188.16 192.664 187.381C191.526 186.473 190.797 185.151 190.637 183.708C190.477 182.265 190.9 180.817 191.811 179.684C196.96 173.274 200.996 166.052 203.751 158.317C205.364 153.805 206.516 149.143 207.19 144.401C207.426 142.982 208.214 141.713 209.382 140.867C210.551 140.021 212.006 139.667 213.435 139.881C214.874 140.091 216.172 140.86 217.043 142.021C217.914 143.181 218.289 144.637 218.084 146.072C216.674 155.739 213.593 165.091 208.978 173.712C206.514 178.271 203.641 182.598 200.394 186.642C199.868 187.262 199.211 187.759 198.468 188.095C197.726 188.431 196.918 188.599 196.103 188.586Z" stroke="#0E2D7B" stroke-width="8" mask="url(#path-1-inside-1_171_77)" /><path d="M209.777 115.555C208.609 115.558 207.47 115.19 206.525 114.506C205.58 113.821 204.879 112.855 204.523 111.747C202.846 106.451 200.556 101.367 197.7 96.5983C195.034 92.1086 191.898 87.9123 188.346 84.0794C185.152 80.6558 181.642 77.5376 177.864 74.7657C174.073 71.972 170.019 69.55 165.759 67.5338C150.692 60.4324 133.653 58.6267 117.422 62.4112C116.033 62.6627 114.6 62.373 113.42 61.602C112.239 60.831 111.401 59.6376 111.08 58.2689C110.758 56.9001 110.977 55.4606 111.692 54.2482C112.406 53.0358 113.562 52.1432 114.919 51.7551C126.745 49.0179 139.022 48.8218 150.931 51.1798C157.685 52.551 164.244 54.7405 170.464 57.6995C175.365 59.9918 180.035 62.7435 184.412 65.9176C188.746 69.0969 192.762 72.6837 196.407 76.6284C204.887 85.7241 211.222 96.5895 214.949 108.432C215.39 109.816 215.261 111.318 214.59 112.607C213.919 113.896 212.762 114.868 211.373 115.308C210.855 115.465 210.318 115.548 209.777 115.555Z" stroke="#0E2D7B" stroke-width="8" mask="url(#path-1-inside-1_171_77)" /><path d="M133.429 146.337C140.515 146.337 146.259 140.589 146.259 133.5C146.259 126.411 140.515 120.664 133.429 120.664C126.344 120.664 120.6 126.411 120.6 133.5C120.6 140.589 126.344 146.337 133.429 146.337Z" stroke="#0E2D7B" stroke-width="3.5" stroke-linecap="round" stroke-linejoin="round" /><path d="M162.199 145.17C161.682 146.343 161.527 147.644 161.756 148.906C161.985 150.168 162.586 151.332 163.482 152.249L163.715 152.483C164.438 153.205 165.012 154.063 165.403 155.007C165.794 155.952 165.996 156.964 165.996 157.987C165.996 159.009 165.794 160.021 165.403 160.966C165.012 161.91 164.438 162.768 163.715 163.491C162.993 164.214 162.136 164.788 161.192 165.179C160.248 165.571 159.236 165.772 158.214 165.772C157.192 165.772 156.181 165.571 155.237 165.179C154.293 164.788 153.435 164.214 152.713 163.491L152.48 163.257C151.563 162.361 150.4 161.759 149.138 161.53C147.877 161.301 146.576 161.456 145.404 161.974C144.254 162.467 143.273 163.286 142.582 164.329C141.892 165.373 141.521 166.596 141.516 167.847V168.509C141.516 170.572 140.697 172.551 139.239 174.01C137.78 175.469 135.803 176.288 133.74 176.288C131.678 176.288 129.7 175.469 128.242 174.01C126.784 172.551 125.965 170.572 125.965 168.509V168.159C125.935 166.871 125.518 165.622 124.769 164.575C124.021 163.527 122.974 162.729 121.766 162.285C120.593 161.767 119.293 161.613 118.031 161.841C116.77 162.07 115.606 162.672 114.69 163.569L114.457 163.802C113.735 164.525 112.877 165.099 111.933 165.491C110.989 165.882 109.978 166.084 108.956 166.084C107.934 166.084 106.922 165.882 105.978 165.491C105.034 165.099 104.177 164.525 103.454 163.802C102.731 163.079 102.158 162.221 101.767 161.277C101.375 160.333 101.174 159.32 101.174 158.298C101.174 157.275 101.375 156.263 101.767 155.319C102.158 154.374 102.731 153.516 103.454 152.794L103.688 152.56C104.584 151.644 105.185 150.479 105.414 149.217C105.643 147.955 105.488 146.654 104.971 145.481C104.478 144.33 103.66 143.349 102.616 142.658C101.573 141.967 100.351 141.596 99.1001 141.591H98.4392C96.377 141.591 94.3992 140.771 92.941 139.312C91.4828 137.853 90.6636 135.875 90.6636 133.811C90.6636 131.748 91.4828 129.769 92.941 128.31C94.3992 126.851 96.377 126.032 98.4392 126.032H98.7891C100.076 126.001 101.324 125.585 102.371 124.835C103.418 124.086 104.215 123.039 104.66 121.83C105.177 120.657 105.332 119.356 105.103 118.094C104.874 116.832 104.273 115.668 103.377 114.751L103.143 114.518C102.42 113.795 101.847 112.937 101.456 111.993C101.064 111.048 100.863 110.036 100.863 109.013C100.863 107.991 101.064 106.979 101.456 106.034C101.847 105.09 102.42 104.232 103.143 103.509C103.866 102.786 104.723 102.212 105.667 101.821C106.611 101.429 107.623 101.228 108.645 101.228C109.667 101.228 110.678 101.429 111.622 101.821C112.566 102.212 113.424 102.786 114.146 103.509L114.379 103.743C115.295 104.639 116.459 105.241 117.72 105.47C118.982 105.699 120.282 105.544 121.455 105.026H121.766C122.916 104.533 123.897 103.714 124.587 102.671C125.278 101.627 125.649 100.404 125.654 99.1526V98.4914C125.654 96.4281 126.473 94.4493 127.931 92.9903C129.389 91.5313 131.367 90.7117 133.429 90.7117C135.492 90.7117 137.469 91.5313 138.928 92.9903C140.386 94.4493 141.205 96.4281 141.205 98.4914V98.8415C141.21 100.093 141.581 101.316 142.271 102.36C142.962 103.403 143.943 104.222 145.093 104.715C146.265 105.233 147.566 105.387 148.827 105.159C150.089 104.93 151.252 104.328 152.169 103.431L152.402 103.198C153.124 102.475 153.982 101.901 154.926 101.509C155.869 101.118 156.881 100.916 157.903 100.916C158.925 100.916 159.937 101.118 160.881 101.509C161.825 101.901 162.682 102.475 163.404 103.198C164.127 103.921 164.701 104.779 165.092 105.723C165.483 106.668 165.685 107.68 165.685 108.702C165.685 109.725 165.483 110.737 165.092 111.681C164.701 112.626 164.127 113.484 163.404 114.206L163.171 114.44C162.275 115.357 161.674 116.521 161.445 117.783C161.216 119.045 161.371 120.346 161.888 121.519V121.83C162.381 122.981 163.199 123.962 164.242 124.653C165.285 125.344 166.508 125.715 167.759 125.72H168.42C170.482 125.72 172.46 126.54 173.918 127.999C175.376 129.458 176.195 131.437 176.195 133.5C176.195 135.563 175.376 137.542 173.918 139.001C172.46 140.46 170.482 141.28 168.42 141.28H168.07C166.819 141.285 165.596 141.656 164.553 142.347C163.51 143.038 162.692 144.019 162.199 145.17Z" stroke="#0E2D7B" stroke-width="3.5" stroke-linecap="round" stroke-linejoin="round" /><path d="M297.65 151.631V9.62739H329.379V68.5951L385.311 9.62739H426.803L362.735 75.6151L432.294 151.631H387.955L329.379 84.2396V151.631H297.65Z" fill="#0E2D7B" /><path d="M501.382 151.631V139.396H500.975C494.263 149.826 482.06 154.038 469.653 154.038C451.144 154.038 434.467 143.608 434.467 123.953C434.467 90.2567 475.958 89.655 501.382 89.655C501.382 79.0248 492.433 72.2054 481.856 72.2054C471.89 72.2054 463.551 76.6179 457.043 83.8385L440.772 67.3917C451.958 56.962 468.229 51.7472 484.297 51.7472C519.89 51.7472 529.449 69.598 529.449 102.09V151.631H501.382ZM501.382 108.91H493.856C484.5 108.91 463.755 109.712 463.755 122.95C463.755 130.17 471.483 133.58 478.195 133.58C490.195 133.58 501.382 127.362 501.382 115.328V108.91Z" fill="#0E2D7B" /><path d="M652.319 0V151.631H624.251V138.795H623.845C619.167 145.815 607.37 154.038 593.539 154.038C564.251 154.038 544.929 133.179 544.929 103.695C544.929 76.6179 562.014 51.7472 590.082 51.7472C602.692 51.7472 614.489 55.1569 621.404 64.5837H621.811V0H652.319ZM624.251 102.893C624.251 88.251 615.099 78.2225 599.845 78.2225C584.59 78.2225 575.438 88.251 575.438 102.893C575.438 117.534 584.59 127.563 599.845 127.563C615.099 127.563 624.251 117.534 624.251 102.893Z" fill="#0E2D7B" /><path d="M748.905 119.339L770.261 134.783C760.499 147.018 744.431 154.038 728.566 154.038C698.058 154.038 673.651 133.981 673.651 102.893C673.651 71.8042 698.058 51.7472 728.566 51.7472C757.041 51.7472 774.939 71.8042 774.939 102.893V112.319H704.16C706.6 123.752 715.346 131.173 727.143 131.173C737.109 131.173 743.821 126.159 748.905 119.339ZM704.16 91.8613H744.431C744.634 81.8328 736.702 73.4088 725.719 73.4088C712.295 73.4088 704.973 82.4345 704.16 91.8613Z" fill="#0E2D7B" /><path d="M793.899 151.631V0H824.407V151.631H793.899Z" fill="#0E2D7B" /><path d="M854.281 151.631V9.62739H885.889V122.749H944.444V151.631H854.281Z" fill="#0E2D7B" /><path d="M1019.84 151.631V139.396H1019.43C1012.75 149.826 1000.59 154.038 988.231 154.038C969.793 154.038 953.179 143.608 953.179 123.953C953.179 90.2567 994.512 89.655 1019.84 89.655C1019.84 79.0248 1010.92 72.2054 1000.39 72.2054C990.46 72.2054 982.152 76.6179 975.669 83.8385L959.46 67.3917C970.603 56.962 986.812 51.7472 1002.82 51.7472C1038.28 51.7472 1047.8 69.598 1047.8 102.09V151.631H1019.84ZM1019.84 108.91H1012.34C1003.02 108.91 982.355 109.712 982.355 122.95C982.355 130.17 990.054 133.58 996.741 133.58C1008.69 133.58 1019.84 127.362 1019.84 115.328V108.91Z" fill="#0E2D7B" /><path d="M1069.7 151.631V0H1100.1V64.5837H1100.5C1107.39 55.1569 1119.14 51.7472 1131.7 51.7472C1159.66 51.7472 1176.68 76.6179 1176.68 103.695C1176.68 133.179 1157.44 154.038 1128.26 154.038C1114.48 154.038 1102.73 145.815 1098.07 138.795H1097.66V151.631H1069.7ZM1097.66 102.893C1097.66 117.534 1106.78 127.563 1121.98 127.563C1137.17 127.563 1146.29 117.534 1146.29 102.893C1146.29 88.251 1137.17 78.2225 1121.98 78.2225C1106.78 78.2225 1097.66 88.251 1097.66 102.893Z" fill="#0E2D7B" /><path d="M1268.85 64.5837L1250.21 82.8356C1245.75 77.4202 1239.87 74.6122 1232.58 74.6122C1227.52 74.6122 1221.44 76.8185 1221.44 82.635C1221.44 97.0761 1272.7 84.8413 1272.7 121.947C1272.7 146.818 1248.38 154.038 1227.31 154.038C1213.54 154.038 1198.34 150.628 1188.61 140.8L1207.05 120.543C1212.72 127.362 1219.41 131.173 1228.53 131.173C1235.42 131.173 1242.31 129.368 1242.31 124.153C1242.31 108.509 1191.05 121.746 1191.05 84.6407C1191.05 61.7757 1211.71 51.7472 1232.38 51.7472C1245.35 51.7472 1259.73 54.9563 1268.85 64.5837Z" fill="#0E2D7B" /><path d="M321.322 205.957V219.708H319.917C318.839 215.389 317.448 212.451 315.745 210.894C314.07 209.336 311.927 208.558 309.316 208.558C307.329 208.558 305.725 209.101 304.505 210.188C303.284 211.276 302.674 212.48 302.674 213.802C302.674 215.448 303.128 216.858 304.037 218.034C304.917 219.238 306.705 220.516 309.401 221.868L315.617 224.997C321.379 227.906 324.26 231.741 324.26 236.501C324.26 240.173 322.912 243.141 320.215 245.403C317.547 247.636 314.553 248.753 311.232 248.753C308.848 248.753 306.123 248.312 303.057 247.431C302.121 247.137 301.354 246.99 300.758 246.99C300.106 246.99 299.595 247.372 299.226 248.136H297.821V233.724H299.226C300.02 237.837 301.539 240.937 303.781 243.023C306.023 245.11 308.535 246.153 311.317 246.153C313.275 246.153 314.865 245.565 316.085 244.39C317.334 243.185 317.959 241.745 317.959 240.07C317.959 238.043 317.263 236.339 315.873 234.958C314.51 233.577 311.771 231.829 307.656 229.713C303.54 227.598 300.844 225.688 299.566 223.984C298.289 222.309 297.65 220.193 297.65 217.637C297.65 214.317 298.743 211.54 300.929 209.307C303.143 207.074 305.995 205.957 309.486 205.957C311.019 205.957 312.878 206.295 315.064 206.971C316.511 207.412 317.476 207.632 317.959 207.632C318.413 207.632 318.768 207.529 319.023 207.324C319.279 207.118 319.577 206.663 319.917 205.957H321.322Z" fill="#0E2D7B" /><path d="M336.649 222.353C336.621 228.347 338.026 233.048 340.864 236.456C343.702 239.865 347.037 241.569 350.869 241.569C353.424 241.569 355.638 240.849 357.511 239.409C359.413 237.94 361.002 235.443 362.279 231.917L363.599 232.798C363.003 236.824 361.272 240.497 358.405 243.817C355.538 247.108 351.948 248.753 347.634 248.753C342.95 248.753 338.934 246.873 335.585 243.112C332.264 239.321 330.604 234.238 330.604 227.862C330.604 220.957 332.307 215.58 335.713 211.731C339.147 207.852 343.447 205.913 348.613 205.913C352.984 205.913 356.574 207.412 359.384 210.409C362.194 213.376 363.599 217.358 363.599 222.353H336.649ZM336.649 219.797H354.701C354.559 217.211 354.261 215.389 353.807 214.331C353.097 212.686 352.033 211.393 350.614 210.453C349.223 209.513 347.761 209.042 346.229 209.042C343.873 209.042 341.758 209.997 339.885 211.907C338.04 213.788 336.961 216.418 336.649 219.797Z" fill="#0E2D7B" /><path d="M380.246 205.957V215.037C383.51 208.984 386.859 205.957 390.294 205.957C391.855 205.957 393.146 206.457 394.168 207.456C395.19 208.425 395.701 209.557 395.701 210.85C395.701 211.995 395.332 212.965 394.594 213.758C393.856 214.552 392.976 214.948 391.954 214.948C390.961 214.948 389.84 214.449 388.591 213.45C387.37 212.421 386.462 211.907 385.866 211.907C385.355 211.907 384.802 212.201 384.206 212.789C382.928 213.993 381.608 215.977 380.246 218.739V238.087C380.246 240.32 380.516 242.01 381.055 243.156C381.424 243.949 382.077 244.61 383.013 245.139C383.95 245.668 385.298 245.932 387.058 245.932V247.519H367.09V245.932C369.077 245.932 370.553 245.609 371.518 244.963C372.228 244.493 372.724 243.743 373.008 242.715C373.15 242.215 373.221 240.79 373.221 238.44V222.794C373.221 218.092 373.122 215.301 372.923 214.42C372.753 213.509 372.412 212.848 371.901 212.436C371.419 212.025 370.809 211.819 370.071 211.819C369.191 211.819 368.197 212.04 367.09 212.48L366.665 210.894L378.458 205.957H380.246Z" fill="#0E2D7B" /><path d="M395.871 207.147H414.221V208.778H413.029C411.922 208.778 411.07 209.057 410.474 209.615C409.907 210.174 409.623 210.923 409.623 211.863C409.623 212.892 409.921 214.111 410.517 215.521L419.585 237.823L428.697 214.684C429.349 213.039 429.676 211.79 429.676 210.938C429.676 210.526 429.562 210.188 429.335 209.924C429.023 209.483 428.626 209.189 428.143 209.042C427.661 208.866 426.681 208.778 425.205 208.778V207.147H437.935V208.778C436.459 208.896 435.438 209.204 434.87 209.704C433.876 210.585 432.982 212.054 432.188 214.111L418.351 248.753H416.605L402.683 214.684C402.059 213.097 401.463 211.966 400.895 211.29C400.327 210.585 399.604 209.997 398.724 209.527C398.241 209.263 397.29 209.013 395.871 208.778V207.147Z" fill="#0E2D7B" /><path d="M451.389 184.846C452.581 184.846 453.589 185.287 454.412 186.168C455.263 187.02 455.689 188.063 455.689 189.297C455.689 190.531 455.263 191.589 454.412 192.471C453.589 193.352 452.581 193.793 451.389 193.793C450.197 193.793 449.175 193.352 448.324 192.471C447.472 191.589 447.046 190.531 447.046 189.297C447.046 188.063 447.458 187.02 448.281 186.168C449.133 185.287 450.169 184.846 451.389 184.846ZM454.923 205.957V238.396C454.923 240.923 455.093 242.612 455.434 243.464C455.803 244.287 456.328 244.904 457.009 245.315C457.719 245.727 458.996 245.932 460.841 245.932V247.519H441.895V245.932C443.796 245.932 445.074 245.741 445.727 245.359C446.379 244.977 446.89 244.346 447.259 243.464C447.657 242.583 447.855 240.893 447.855 238.396V222.838C447.855 218.46 447.728 215.624 447.472 214.331C447.273 213.391 446.961 212.745 446.535 212.392C446.11 212.01 445.528 211.819 444.79 211.819C443.995 211.819 443.03 212.04 441.895 212.48L441.299 210.894L453.049 205.957H454.923Z" fill="#0E2D7B" /><path d="M477.104 214.508C481.674 208.807 486.031 205.957 490.175 205.957C492.304 205.957 494.134 206.516 495.667 207.632C497.2 208.719 498.42 210.526 499.329 213.053C499.953 214.816 500.265 217.519 500.265 221.163V238.396C500.265 240.952 500.464 242.686 500.861 243.596C501.174 244.331 501.67 244.904 502.351 245.315C503.061 245.727 504.352 245.932 506.226 245.932V247.519H486.939V245.932H487.748C489.565 245.932 490.828 245.653 491.537 245.095C492.275 244.507 492.786 243.655 493.07 242.539C493.184 242.098 493.24 240.717 493.24 238.396V221.868C493.24 218.195 492.772 215.536 491.835 213.891C490.927 212.216 489.38 211.378 487.195 211.378C483.817 211.378 480.454 213.288 477.104 217.108V238.396C477.104 241.128 477.26 242.818 477.573 243.464C477.97 244.316 478.509 244.948 479.191 245.359C479.9 245.741 481.319 245.932 483.448 245.932V247.519H464.162V245.932H465.013C467 245.932 468.334 245.418 469.015 244.39C469.725 243.332 470.079 241.334 470.079 238.396V223.411C470.079 218.562 469.966 215.609 469.739 214.552C469.54 213.494 469.214 212.774 468.76 212.392C468.334 212.01 467.752 211.819 467.014 211.819C466.219 211.819 465.269 212.04 464.162 212.48L463.523 210.894L475.274 205.957H477.104V214.508Z" fill="#0E2D7B" /><path d="M519.765 232.798C517.38 231.594 515.55 229.919 514.272 227.774C512.995 225.6 512.357 223.205 512.357 220.59C512.357 216.594 513.804 213.156 516.699 210.277C519.623 207.397 523.355 205.957 527.896 205.957C531.615 205.957 534.836 206.898 537.561 208.778H545.821C547.041 208.778 547.751 208.822 547.949 208.91C548.148 208.969 548.29 209.087 548.375 209.263C548.545 209.527 548.631 209.997 548.631 210.673C548.631 211.437 548.56 211.966 548.418 212.26C548.333 212.407 548.176 212.524 547.949 212.612C547.751 212.701 547.041 212.745 545.821 212.745H540.754C542.344 214.86 543.138 217.563 543.138 220.854C543.138 224.615 541.748 227.833 538.966 230.506C536.184 233.18 532.452 234.517 527.769 234.517C525.839 234.517 523.866 234.223 521.851 233.636C520.602 234.752 519.75 235.737 519.296 236.589C518.871 237.411 518.658 238.117 518.658 238.704C518.658 239.204 518.885 239.689 519.339 240.159C519.821 240.629 520.744 240.967 522.106 241.172C522.901 241.29 524.888 241.393 528.067 241.481C533.914 241.628 537.703 241.833 539.434 242.098C542.074 242.48 544.174 243.494 545.735 245.139C547.325 246.784 548.12 248.812 548.12 251.221C548.12 254.541 546.615 257.656 543.607 260.565C539.179 264.855 533.403 267 526.279 267C520.801 267 516.174 265.721 512.399 263.165C510.27 261.696 509.206 260.168 509.206 258.582C509.206 257.876 509.362 257.171 509.674 256.466C510.157 255.379 511.15 253.866 512.655 251.926C512.853 251.662 514.301 250.075 516.997 247.166C515.521 246.256 514.471 245.447 513.847 244.742C513.251 244.008 512.953 243.185 512.953 242.274C512.953 241.246 513.35 240.041 514.145 238.66C514.968 237.279 516.841 235.325 519.765 232.798ZM527.173 208.073C525.072 208.073 523.313 208.94 521.893 210.673C520.474 212.407 519.765 215.066 519.765 218.651C519.765 223.293 520.73 226.892 522.66 229.449C524.136 231.388 526.009 232.358 528.28 232.358C530.437 232.358 532.211 231.52 533.602 229.845C534.992 228.171 535.688 225.541 535.688 221.956C535.688 217.284 534.708 213.626 532.75 210.982C531.302 209.042 529.443 208.073 527.173 208.073ZM519.339 247.519C518.005 249.017 516.997 250.413 516.316 251.706C515.635 252.999 515.294 254.189 515.294 255.276C515.294 256.686 516.117 257.92 517.764 258.978C520.602 260.8 524.703 261.711 530.068 261.711C535.177 261.711 538.938 260.771 541.35 258.89C543.791 257.039 545.012 255.056 545.012 252.94C545.012 251.412 544.288 250.325 542.84 249.679C541.364 249.032 538.441 248.65 534.07 248.533C527.684 248.356 522.773 248.018 519.339 247.519Z" fill="#0E2D7B" /><path d="M586.054 193.881V207.147H595.165V210.232H586.054V236.412C586.054 239.027 586.409 240.79 587.118 241.701C587.856 242.612 588.793 243.068 589.928 243.068C590.865 243.068 591.773 242.774 592.653 242.186C593.533 241.569 594.214 240.673 594.697 239.498H596.357C595.364 242.377 593.959 244.551 592.142 246.02C590.326 247.46 588.452 248.18 586.522 248.18C585.217 248.18 583.939 247.813 582.691 247.078C581.442 246.314 580.519 245.242 579.923 243.861C579.327 242.45 579.029 240.291 579.029 237.382V210.232H572.856V208.778C574.417 208.132 576.006 207.044 577.624 205.517C579.27 203.959 580.732 202.123 582.009 200.007C582.662 198.891 583.57 196.849 584.734 193.881H586.054Z" fill="#0E2D7B" /><path d="M610.45 184.846V214.375C613.6 210.791 616.098 208.499 617.943 207.5C619.788 206.472 621.633 205.957 623.478 205.957C625.691 205.957 627.593 206.589 629.183 207.852C630.772 209.116 631.95 211.099 632.716 213.802C633.256 215.683 633.525 219.121 633.525 224.116V238.396C633.525 240.952 633.724 242.7 634.121 243.64C634.405 244.346 634.888 244.904 635.569 245.315C636.25 245.727 637.499 245.932 639.315 245.932V247.519H620.157V245.932H621.051C622.867 245.932 624.13 245.653 624.84 245.095C625.55 244.507 626.046 243.655 626.33 242.539C626.415 242.069 626.458 240.688 626.458 238.396V224.116C626.458 219.708 626.231 216.814 625.777 215.433C625.351 214.052 624.655 213.024 623.69 212.348C622.725 211.643 621.562 211.29 620.199 211.29C618.808 211.29 617.361 211.672 615.857 212.436C614.352 213.2 612.55 214.743 610.45 217.064V238.396C610.45 241.158 610.591 242.877 610.875 243.552C611.188 244.228 611.741 244.801 612.536 245.271C613.359 245.712 614.764 245.932 616.751 245.932V247.519H597.422V245.932C599.153 245.932 600.515 245.653 601.509 245.095C602.076 244.801 602.531 244.243 602.871 243.42C603.212 242.597 603.382 240.923 603.382 238.396V201.858C603.382 197.245 603.269 194.41 603.042 193.352C602.843 192.294 602.516 191.575 602.062 191.193C601.637 190.811 601.055 190.62 600.317 190.62C599.721 190.62 598.756 190.855 597.422 191.325L596.826 189.782L608.491 184.846H610.45Z" fill="#0E2D7B" /><path d="M654.004 205.957V215.037C657.268 208.984 660.617 205.957 664.052 205.957C665.613 205.957 666.904 206.457 667.926 207.456C668.948 208.425 669.459 209.557 669.459 210.85C669.459 211.995 669.09 212.965 668.352 213.758C667.614 214.552 666.734 214.948 665.712 214.948C664.719 214.948 663.597 214.449 662.349 213.45C661.128 212.421 660.22 211.907 659.624 211.907C659.113 211.907 658.559 212.201 657.963 212.789C656.686 213.993 655.366 215.977 654.004 218.739V238.087C654.004 240.32 654.274 242.01 654.813 243.156C655.182 243.949 655.835 244.61 656.771 245.139C657.708 245.668 659.056 245.932 660.816 245.932V247.519H640.848V245.932C642.835 245.932 644.311 245.609 645.276 244.963C645.986 244.493 646.482 243.743 646.766 242.715C646.908 242.215 646.979 240.79 646.979 238.44V222.794C646.979 218.092 646.88 215.301 646.681 214.42C646.511 213.509 646.17 212.848 645.659 212.436C645.177 212.025 644.566 211.819 643.828 211.819C642.949 211.819 641.955 212.04 640.848 212.48L640.422 210.894L652.216 205.957H654.004Z" fill="#0E2D7B" /><path d="M690.704 205.957C696.607 205.957 701.347 208.279 704.924 212.921C707.961 216.888 709.479 221.442 709.479 226.584C709.479 230.198 708.642 233.856 706.967 237.558C705.293 241.26 702.979 244.052 700.028 245.932C697.104 247.813 693.84 248.753 690.235 248.753C684.36 248.753 679.691 246.329 676.228 241.481C673.305 237.397 671.843 232.813 671.843 227.73C671.843 224.028 672.723 220.355 674.483 216.711C676.271 213.039 678.612 210.335 681.507 208.602C684.402 206.839 687.468 205.957 690.704 205.957ZM689.384 208.822C687.879 208.822 686.361 209.292 684.828 210.232C683.324 211.143 682.103 212.759 681.167 215.081C680.23 217.402 679.762 220.384 679.762 224.028C679.762 229.904 680.883 234.973 683.125 239.233C685.396 243.494 688.376 245.624 692.066 245.624C694.819 245.624 697.09 244.448 698.878 242.098C700.666 239.747 701.56 235.707 701.56 229.978C701.56 222.808 700.07 217.167 697.09 213.053C695.075 210.232 692.506 208.822 689.384 208.822Z" fill="#0E2D7B" /><path d="M749.415 207.147V231.608C749.415 236.28 749.514 239.145 749.713 240.203C749.94 241.231 750.28 241.951 750.734 242.362C751.217 242.774 751.77 242.979 752.395 242.979C753.275 242.979 754.268 242.73 755.375 242.23L755.971 243.773L744.306 248.753H742.39V240.203C739.041 243.964 736.486 246.329 734.726 247.299C732.966 248.268 731.107 248.753 729.149 248.753C726.963 248.753 725.062 248.107 723.444 246.814C721.854 245.492 720.747 243.802 720.123 241.745C719.499 239.689 719.186 236.78 719.186 233.019V214.992C719.186 213.083 718.988 211.76 718.59 211.026C718.193 210.291 717.597 209.733 716.802 209.351C716.036 208.94 714.631 208.749 712.587 208.778V207.147H726.254V234.165C726.254 237.926 726.878 240.394 728.127 241.569C729.404 242.744 730.937 243.332 732.725 243.332C733.946 243.332 735.322 242.935 736.855 242.142C738.416 241.349 740.261 239.835 742.39 237.602V214.728C742.39 212.436 741.978 210.894 741.155 210.1C740.36 209.278 738.686 208.837 736.131 208.778V207.147H749.415Z" fill="#0E2D7B" /><path d="M769.255 232.798C766.87 231.594 765.04 229.919 763.762 227.774C762.485 225.6 761.847 223.205 761.847 220.59C761.847 216.594 763.294 213.156 766.189 210.277C769.113 207.397 772.845 205.957 777.386 205.957C781.105 205.957 784.326 206.898 787.051 208.778H795.311C796.531 208.778 797.241 208.822 797.439 208.91C797.638 208.969 797.78 209.087 797.865 209.263C798.035 209.527 798.121 209.997 798.121 210.673C798.121 211.437 798.05 211.966 797.908 212.26C797.823 212.407 797.666 212.524 797.439 212.612C797.241 212.701 796.531 212.745 795.311 212.745H790.244C791.834 214.86 792.628 217.563 792.628 220.854C792.628 224.615 791.238 227.833 788.456 230.506C785.674 233.18 781.942 234.517 777.259 234.517C775.329 234.517 773.356 234.223 771.341 233.636C770.092 234.752 769.24 235.737 768.786 236.589C768.361 237.411 768.148 238.117 768.148 238.704C768.148 239.204 768.375 239.689 768.829 240.159C769.311 240.629 770.234 240.967 771.596 241.172C772.391 241.29 774.378 241.393 777.557 241.481C783.404 241.628 787.193 241.833 788.924 242.098C791.564 242.48 793.664 243.494 795.225 245.139C796.815 246.784 797.61 248.812 797.61 251.221C797.61 254.541 796.105 257.656 793.097 260.565C788.669 264.855 782.893 267 775.769 267C770.291 267 765.664 265.721 761.889 263.165C759.76 261.696 758.696 260.168 758.696 258.582C758.696 257.876 758.852 257.171 759.164 256.466C759.647 255.379 760.64 253.866 762.145 251.926C762.343 251.662 763.791 250.075 766.487 247.166C765.011 246.256 763.961 245.447 763.337 244.742C762.741 244.008 762.443 243.185 762.443 242.274C762.443 241.246 762.84 240.041 763.635 238.66C764.458 237.279 766.331 235.325 769.255 232.798ZM776.663 208.073C774.562 208.073 772.803 208.94 771.383 210.673C769.964 212.407 769.255 215.066 769.255 218.651C769.255 223.293 770.22 226.892 772.15 229.449C773.626 231.388 775.499 232.358 777.77 232.358C779.927 232.358 781.701 231.52 783.092 229.845C784.482 228.171 785.178 225.541 785.178 221.956C785.178 217.284 784.199 213.626 782.24 210.982C780.792 209.042 778.933 208.073 776.663 208.073ZM768.829 247.519C767.495 249.017 766.487 250.413 765.806 251.706C765.125 252.999 764.784 254.189 764.784 255.276C764.784 256.686 765.607 257.92 767.254 258.978C770.092 260.8 774.193 261.711 779.558 261.711C784.667 261.711 788.428 260.771 790.84 258.89C793.281 257.039 794.502 255.056 794.502 252.94C794.502 251.412 793.778 250.325 792.33 249.679C790.854 249.032 787.931 248.65 783.56 248.533C777.174 248.356 772.263 248.018 768.829 247.519Z" fill="#0E2D7B" /><path d="M813.873 184.846V214.375C817.024 210.791 819.522 208.499 821.367 207.5C823.211 206.472 825.056 205.957 826.901 205.957C829.115 205.957 831.017 206.589 832.606 207.852C834.196 209.116 835.374 211.099 836.14 213.802C836.679 215.683 836.949 219.121 836.949 224.116V238.396C836.949 240.952 837.148 242.7 837.545 243.64C837.829 244.346 838.311 244.904 838.993 245.315C839.674 245.727 840.923 245.932 842.739 245.932V247.519H823.58V245.932H824.475C826.291 245.932 827.554 245.653 828.264 245.095C828.973 244.507 829.47 243.655 829.754 242.539C829.839 242.069 829.882 240.688 829.882 238.396V224.116C829.882 219.708 829.654 216.814 829.2 215.433C828.775 214.052 828.079 213.024 827.114 212.348C826.149 211.643 824.985 211.29 823.623 211.29C822.232 211.29 820.785 211.672 819.28 212.436C817.776 213.2 815.974 214.743 813.873 217.064V238.396C813.873 241.158 814.015 242.877 814.299 243.552C814.611 244.228 815.165 244.801 815.96 245.271C816.783 245.712 818.188 245.932 820.174 245.932V247.519H800.845V245.932C802.577 245.932 803.939 245.653 804.933 245.095C805.5 244.801 805.954 244.243 806.295 243.42C806.636 242.597 806.806 240.923 806.806 238.396V201.858C806.806 197.245 806.692 194.41 806.465 193.352C806.267 192.294 805.94 191.575 805.486 191.193C805.06 190.811 804.478 190.62 803.74 190.62C803.144 190.62 802.179 190.855 800.845 191.325L800.249 189.782L811.915 184.846H813.873Z" fill="#0E2D7B" /><path d="M879.141 193.881V207.147H888.252V210.232H879.141V236.412C879.141 239.027 879.496 240.79 880.205 241.701C880.943 242.612 881.88 243.068 883.015 243.068C883.952 243.068 884.86 242.774 885.74 242.186C886.62 241.569 887.301 240.673 887.784 239.498H889.444C888.451 242.377 887.046 244.551 885.229 246.02C883.413 247.46 881.539 248.18 879.609 248.18C878.304 248.18 877.026 247.813 875.778 247.078C874.529 246.314 873.606 245.242 873.01 243.861C872.414 242.45 872.116 240.291 872.116 237.382V210.232H865.943V208.778C867.504 208.132 869.093 207.044 870.711 205.517C872.357 203.959 873.819 202.123 875.096 200.007C875.749 198.891 876.657 196.849 877.821 193.881H879.141Z" fill="#0E2D7B" /><path d="M898.64 222.353C898.612 228.347 900.017 233.048 902.855 236.456C905.694 239.865 909.029 241.569 912.86 241.569C915.415 241.569 917.629 240.849 919.502 239.409C921.404 237.94 922.993 235.443 924.271 231.917L925.59 232.798C924.994 236.824 923.263 240.497 920.396 243.817C917.529 247.108 913.939 248.753 909.625 248.753C904.941 248.753 900.925 246.873 897.576 243.112C894.255 239.321 892.595 234.238 892.595 227.862C892.595 220.957 894.298 215.58 897.704 211.731C901.138 207.852 905.438 205.913 910.604 205.913C914.975 205.913 918.565 207.412 921.375 210.409C924.185 213.376 925.59 217.358 925.59 222.353H898.64ZM898.64 219.797H916.692C916.55 217.211 916.252 215.389 915.798 214.331C915.089 212.686 914.024 211.393 912.605 210.453C911.214 209.513 909.752 209.042 908.22 209.042C905.864 209.042 903.749 209.997 901.876 211.907C900.031 213.788 898.953 216.418 898.64 219.797Z" fill="#0E2D7B" /><path d="M963.951 232.181C962.9 237.5 960.843 241.598 957.777 244.478C954.712 247.328 951.32 248.753 947.602 248.753C943.174 248.753 939.314 246.828 936.021 242.979C932.729 239.13 931.083 233.93 931.083 227.377C931.083 221.031 932.899 215.874 936.532 211.907C940.194 207.941 944.579 205.957 949.688 205.957C953.52 205.957 956.67 207.015 959.14 209.131C961.609 211.217 962.844 213.391 962.844 215.654C962.844 216.77 962.489 217.681 961.779 218.386C961.098 219.062 960.133 219.4 958.884 219.4C957.209 219.4 955.946 218.842 955.095 217.725C954.612 217.108 954.286 215.933 954.116 214.199C953.974 212.466 953.406 211.143 952.413 210.232C951.419 209.351 950.043 208.91 948.283 208.91C945.445 208.91 943.16 209.997 941.428 212.172C939.129 215.051 937.98 218.856 937.98 223.587C937.98 228.406 939.115 232.666 941.386 236.368C943.685 240.041 946.779 241.878 950.667 241.878C953.449 241.878 955.946 240.893 958.16 238.925C959.721 237.573 961.24 235.12 962.716 231.564L963.951 232.181Z" fill="#0E2D7B" /><path d="M981.023 184.846V214.375C984.174 210.791 986.671 208.499 988.516 207.5C990.361 206.472 992.206 205.957 994.051 205.957C996.265 205.957 998.167 206.589 999.756 207.852C1001.35 209.116 1002.52 211.099 1003.29 213.802C1003.83 215.683 1004.1 219.121 1004.1 224.116V238.396C1004.1 240.952 1004.3 242.7 1004.69 243.64C1004.98 244.346 1005.46 244.904 1006.14 245.315C1006.82 245.727 1008.07 245.932 1009.89 245.932V247.519H990.73V245.932H991.624C993.441 245.932 994.704 245.653 995.414 245.095C996.123 244.507 996.62 243.655 996.904 242.539C996.989 242.069 997.031 240.688 997.031 238.396V224.116C997.031 219.708 996.804 216.814 996.35 215.433C995.924 214.052 995.229 213.024 994.264 212.348C993.299 211.643 992.135 211.29 990.773 211.29C989.382 211.29 987.935 211.672 986.43 212.436C984.926 213.2 983.124 214.743 981.023 217.064V238.396C981.023 241.158 981.165 242.877 981.449 243.552C981.761 244.228 982.315 244.801 983.109 245.271C983.932 245.712 985.337 245.932 987.324 245.932V247.519H967.995V245.932C969.727 245.932 971.089 245.653 972.082 245.095C972.65 244.801 973.104 244.243 973.445 243.42C973.785 242.597 973.956 240.923 973.956 238.396V201.858C973.956 197.245 973.842 194.41 973.615 193.352C973.416 192.294 973.09 191.575 972.636 191.193C972.21 190.811 971.628 190.62 970.89 190.62C970.294 190.62 969.329 190.855 967.995 191.325L967.399 189.782L979.065 184.846H981.023Z" fill="#0E2D7B" /><path d="M1024.53 214.508C1029.1 208.807 1033.46 205.957 1037.61 205.957C1039.73 205.957 1041.56 206.516 1043.1 207.632C1044.63 208.719 1045.85 210.526 1046.76 213.053C1047.38 214.816 1047.7 217.519 1047.7 221.163V238.396C1047.7 240.952 1047.89 242.686 1048.29 243.596C1048.6 244.331 1049.1 244.904 1049.78 245.315C1050.49 245.727 1051.78 245.932 1053.66 245.932V247.519H1034.37V245.932H1035.18C1037 245.932 1038.26 245.653 1038.97 245.095C1039.71 244.507 1040.22 243.655 1040.5 242.539C1040.61 242.098 1040.67 240.717 1040.67 238.396V221.868C1040.67 218.195 1040.2 215.536 1039.27 213.891C1038.36 212.216 1036.81 211.378 1034.63 211.378C1031.25 211.378 1027.88 213.288 1024.53 217.108V238.396C1024.53 241.128 1024.69 242.818 1025 243.464C1025.4 244.316 1025.94 244.948 1026.62 245.359C1027.33 245.741 1028.75 245.932 1030.88 245.932V247.519H1011.59V245.932H1012.44C1014.43 245.932 1015.76 245.418 1016.45 244.39C1017.16 243.332 1017.51 241.334 1017.51 238.396V223.411C1017.51 218.562 1017.4 215.609 1017.17 214.552C1016.97 213.494 1016.64 212.774 1016.19 212.392C1015.76 212.01 1015.18 211.819 1014.44 211.819C1013.65 211.819 1012.7 212.04 1011.59 212.48L1010.95 210.894L1022.7 205.957H1024.53V214.508Z" fill="#0E2D7B" /><path d="M1075.84 205.957C1081.74 205.957 1086.48 208.279 1090.06 212.921C1093.09 216.888 1094.61 221.442 1094.61 226.584C1094.61 230.198 1093.78 233.856 1092.1 237.558C1090.43 241.26 1088.11 244.052 1085.16 245.932C1082.24 247.813 1078.97 248.753 1075.37 248.753C1069.49 248.753 1064.83 246.329 1061.36 241.481C1058.44 237.397 1056.98 232.813 1056.98 227.73C1056.98 224.028 1057.86 220.355 1059.62 216.711C1061.4 213.039 1063.75 210.335 1066.64 208.602C1069.54 206.839 1072.6 205.957 1075.84 205.957ZM1074.52 208.822C1073.01 208.822 1071.5 209.292 1069.96 210.232C1068.46 211.143 1067.24 212.759 1066.3 215.081C1065.36 217.402 1064.9 220.384 1064.9 224.028C1064.9 229.904 1066.02 234.973 1068.26 239.233C1070.53 243.494 1073.51 245.624 1077.2 245.624C1079.95 245.624 1082.22 244.448 1084.01 242.098C1085.8 239.747 1086.69 235.707 1086.69 229.978C1086.69 222.808 1085.2 217.167 1082.22 213.053C1080.21 210.232 1077.64 208.822 1074.52 208.822Z" fill="#0E2D7B" /><path d="M1113.77 184.846V238.396C1113.77 240.923 1113.94 242.597 1114.28 243.42C1114.65 244.243 1115.21 244.875 1115.94 245.315C1116.68 245.727 1118.06 245.932 1120.07 245.932V247.519H1100.96V245.932C1102.75 245.932 1103.97 245.741 1104.62 245.359C1105.27 244.977 1105.78 244.346 1106.15 243.464C1106.52 242.583 1106.7 240.893 1106.7 238.396V201.726C1106.7 197.172 1106.61 194.381 1106.41 193.352C1106.21 192.294 1105.88 191.575 1105.43 191.193C1105 190.811 1104.45 190.62 1103.77 190.62C1103.03 190.62 1102.09 190.855 1100.96 191.325L1100.23 189.782L1111.86 184.846H1113.77Z" fill="#0E2D7B" /><path d="M1143.7 205.957C1149.61 205.957 1154.35 208.279 1157.92 212.921C1160.96 216.888 1162.48 221.442 1162.48 226.584C1162.48 230.198 1161.64 233.856 1159.97 237.558C1158.29 241.26 1155.98 244.052 1153.03 245.932C1150.1 247.813 1146.84 248.753 1143.23 248.753C1137.36 248.753 1132.69 246.329 1129.23 241.481C1126.3 237.397 1124.84 232.813 1124.84 227.73C1124.84 224.028 1125.72 220.355 1127.48 216.711C1129.27 213.039 1131.61 210.335 1134.51 208.602C1137.4 206.839 1140.47 205.957 1143.7 205.957ZM1142.38 208.822C1140.88 208.822 1139.36 209.292 1137.83 210.232C1136.32 211.143 1135.1 212.759 1134.17 215.081C1133.23 217.402 1132.76 220.384 1132.76 224.028C1132.76 229.904 1133.88 234.973 1136.12 239.233C1138.39 243.494 1141.38 245.624 1145.06 245.624C1147.82 245.624 1150.09 244.448 1151.88 242.098C1153.67 239.747 1154.56 235.707 1154.56 229.978C1154.56 222.808 1153.07 217.167 1150.09 213.053C1148.07 210.232 1145.5 208.822 1142.38 208.822Z" fill="#0E2D7B" /><path d="M1178.66 232.798C1176.27 231.594 1174.44 229.919 1173.16 227.774C1171.89 225.6 1171.25 223.205 1171.25 220.59C1171.25 216.594 1172.7 213.156 1175.59 210.277C1178.51 207.397 1182.25 205.957 1186.79 205.957C1190.51 205.957 1193.73 206.898 1196.45 208.778H1204.71C1205.93 208.778 1206.64 208.822 1206.84 208.91C1207.04 208.969 1207.18 209.087 1207.27 209.263C1207.44 209.527 1207.52 209.997 1207.52 210.673C1207.52 211.437 1207.45 211.966 1207.31 212.26C1207.22 212.407 1207.07 212.524 1206.84 212.612C1206.64 212.701 1205.93 212.745 1204.71 212.745H1199.65C1201.24 214.86 1202.03 217.563 1202.03 220.854C1202.03 224.615 1200.64 227.833 1197.86 230.506C1195.08 233.18 1191.34 234.517 1186.66 234.517C1184.73 234.517 1182.76 234.223 1180.74 233.636C1179.49 234.752 1178.64 235.737 1178.19 236.589C1177.76 237.411 1177.55 238.117 1177.55 238.704C1177.55 239.204 1177.78 239.689 1178.23 240.159C1178.71 240.629 1179.64 240.967 1181 241.172C1181.79 241.29 1183.78 241.393 1186.96 241.481C1192.81 241.628 1196.6 241.833 1198.33 242.098C1200.97 242.48 1203.07 243.494 1204.63 245.139C1206.22 246.784 1207.01 248.812 1207.01 251.221C1207.01 254.541 1205.51 257.656 1202.5 260.565C1198.07 264.855 1192.29 267 1185.17 267C1179.69 267 1175.07 265.721 1171.29 263.165C1169.16 261.696 1168.1 260.168 1168.1 258.582C1168.1 257.876 1168.25 257.171 1168.57 256.466C1169.05 255.379 1170.04 253.866 1171.55 251.926C1171.75 251.662 1173.19 250.075 1175.89 247.166C1174.41 246.256 1173.36 245.447 1172.74 244.742C1172.14 244.008 1171.84 243.185 1171.84 242.274C1171.84 241.246 1172.24 240.041 1173.04 238.66C1173.86 237.279 1175.73 235.325 1178.66 232.798ZM1186.06 208.073C1183.96 208.073 1182.2 208.94 1180.79 210.673C1179.37 212.407 1178.66 215.066 1178.66 218.651C1178.66 223.293 1179.62 226.892 1181.55 229.449C1183.03 231.388 1184.9 232.358 1187.17 232.358C1189.33 232.358 1191.1 231.52 1192.49 229.845C1193.88 228.171 1194.58 225.541 1194.58 221.956C1194.58 217.284 1193.6 213.626 1191.64 210.982C1190.19 209.042 1188.34 208.073 1186.06 208.073ZM1178.23 247.519C1176.9 249.017 1175.89 250.413 1175.21 251.706C1174.53 252.999 1174.19 254.189 1174.19 255.276C1174.19 256.686 1175.01 257.92 1176.66 258.978C1179.49 260.8 1183.6 261.711 1188.96 261.711C1194.07 261.711 1197.83 260.771 1200.24 258.89C1202.68 257.039 1203.9 255.056 1203.9 252.94C1203.9 251.412 1203.18 250.325 1201.73 249.679C1200.26 249.032 1197.33 248.65 1192.96 248.533C1186.58 248.356 1181.67 248.018 1178.23 247.519Z" fill="#0E2D7B" /><path d="M1209.61 207.147H1227.79V208.778H1226.89C1225.62 208.778 1224.65 209.072 1224 209.66C1223.37 210.218 1223.06 210.923 1223.06 211.775C1223.06 212.921 1223.53 214.508 1224.47 216.535L1233.96 236.897L1242.69 214.596C1243.17 213.391 1243.41 212.201 1243.41 211.026C1243.41 210.497 1243.31 210.1 1243.12 209.836C1242.89 209.513 1242.53 209.263 1242.05 209.087C1241.57 208.881 1240.72 208.778 1239.5 208.778V207.147H1252.18V208.778C1251.13 208.896 1250.32 209.131 1249.76 209.483C1249.19 209.836 1248.57 210.497 1247.88 211.467C1247.63 211.878 1247.15 213.009 1246.44 214.86L1230.56 255.144C1229.02 259.052 1227.01 262.005 1224.51 264.003C1222.04 266.001 1219.66 267 1217.36 267C1215.68 267 1214.31 266.5 1213.23 265.501C1212.15 264.502 1211.61 263.356 1211.61 262.063C1211.61 260.829 1211.99 259.83 1212.76 259.066C1213.55 258.332 1214.63 257.964 1216 257.964C1216.93 257.964 1218.21 258.288 1219.83 258.934C1220.96 259.375 1221.67 259.595 1221.96 259.595C1222.81 259.595 1223.73 259.14 1224.72 258.229C1225.74 257.318 1226.77 255.555 1227.79 252.94L1230.56 245.932L1216.55 215.477C1216.12 214.566 1215.44 213.435 1214.5 212.084C1213.8 211.055 1213.21 210.365 1212.76 210.012C1212.11 209.542 1211.06 209.131 1209.61 208.778V207.147Z" fill="#0E2D7B" /></svg>